<svg width="18" height="24" viewBox="0 0 18 24" fill="none" xmlns="http://www.w3.org/2000/svg">
<path fill-rule="evenodd" clip-rule="evenodd" d="M9.706 12.5703C11.4944 12.1408 12.3271 14.3483 10.5339 14.805C8.70317 15.2709 7.7651 13.0355 9.706 12.5703ZM8.83692 21.9896L8.87142 21.9612C9.08627 22.0326 9.52141 23.4434 11.0677 23.8608C13.0855 24.4059 15.4191 23.3012 16.6356 21.4161C16.9842 20.8753 18.0724 18.9394 17.1488 18.5564C16.3409 18.2219 16.0213 20.1021 15.5105 20.8674C14.9622 21.6884 14.0108 22.3248 13.0588 22.5486C9.81494 23.3121 9.46815 20.5099 9.49781 18.0356C11.1155 17.551 12.8664 15.4626 12.7599 13.6985C12.6279 11.5146 9.58375 10.8419 7.84923 11.1837C5.56276 11.635 4.27065 13.1886 5.44656 15.5013C6.77196 18.1051 8.21114 17.5957 8.2765 18.3532C8.51253 21.0755 6.91963 24.0985 3.55408 22.087C2.74371 21.6024 2.18995 20.8892 1.78628 20.0422C1.63619 19.7277 1.40318 18.822 1.27064 18.6798C0.889967 18.2739 0.213347 18.5843 0.235135 19.2013C0.292629 20.8305 2.08101 22.917 3.54864 23.5226C5.57002 24.3575 7.82441 24.1578 8.83692 21.9902V21.9896ZM12.6776 9.56843C12.2122 8.48735 11.7619 7.41172 12.4845 6.25079C13.1502 5.18181 14.4254 5.14369 15.3683 5.87752C17.3425 7.41232 17.3401 11.2279 14.8478 11.0615C16.2138 10.6174 16.6247 9.17762 15.982 7.91687L14.5095 9.03243L14.9991 7.13706C13.264 6.70633 12.637 8.09896 12.6776 9.56782V9.56843ZM13.4462 4.12795C8.92528 5.0475 11.0362 13.1232 15.4821 12.3349C19.9848 11.5364 17.9192 3.21808 13.4462 4.12795ZM3.72778 8.87453L2.30796 7.76986C1.89098 8.20725 1.85527 9.03908 2.02957 9.59747C2.23716 10.2623 2.50163 10.4408 3.01606 10.8032C0.505662 10.5957 0.871206 7.3603 2.32188 5.86663C3.06629 5.10074 4.26459 4.80189 5.14698 5.54176C6.09534 6.33548 5.86536 7.67246 5.62328 8.70272C5.22687 8.0433 5.32613 7.2145 4.126 6.96344C2.79031 6.68455 3.38765 7.22841 3.72778 8.87453ZM3.51293 3.8539C-1.18347 4.63068 -1.1635 12.8377 3.52806 12.0754C8.20751 11.3144 8.18633 3.08136 3.51293 3.8539ZM12.0209 0.0280876C11.3467 0.136982 11.2511 0.931304 11.6838 1.21927C12.1226 1.51086 13.2319 0.895611 14.3994 2.63247C14.6862 3.05958 14.8073 3.73351 15.3949 3.66031C17.0066 3.45946 14.4472 -0.362722 12.0209 0.0280876ZM4.38443 0.0426068C3.3471 0.192034 2.49618 0.836324 1.89582 1.66997C0.431222 3.70811 1.89885 4.00515 2.31402 3.38929C2.88109 2.54838 3.18007 1.61976 4.36203 1.35962C4.85225 1.25194 5.74311 1.50844 5.69954 0.63971C5.66322 -0.0753619 4.90248 -0.0318043 4.38382 0.0432117L4.38443 0.0426068Z" fill="#222327"/>
</svg>
