<svg width="24" height="24" viewBox="0 0 24 24" fill="none" xmlns="http://www.w3.org/2000/svg">
    <path fill-rule="evenodd" clip-rule="evenodd"
        d="M12.706 12.5703C14.4944 12.1408 15.3271 14.3483 13.5339 14.805C11.7032 15.2709 10.7651 13.0355 12.706 12.5703ZM11.8369 21.9896L11.8714 21.9612C12.0863 22.0326 12.5214 23.4434 14.0677 23.8608C16.0855 24.4059 18.4191 23.3012 19.6356 21.4161C19.9842 20.8753 21.0724 18.9394 20.1488 18.5564C19.3409 18.2219 19.0213 20.1021 18.5105 20.8674C17.9622 21.6884 17.0108 22.3248 16.0588 22.5486C12.8149 23.3121 12.4682 20.5099 12.4978 18.0356C14.1155 17.551 15.8664 15.4626 15.7599 13.6985C15.6279 11.5146 12.5837 10.8419 10.8492 11.1837C8.56276 11.635 7.27065 13.1886 8.44656 15.5013C9.77196 18.1051 11.2111 17.5957 11.2765 18.3532C11.5125 21.0755 9.91963 24.0985 6.55408 22.087C5.74371 21.6024 5.18995 20.8892 4.78628 20.0422C4.63619 19.7277 4.40318 18.822 4.27064 18.6798C3.88997 18.2739 3.21335 18.5843 3.23513 19.2013C3.29263 20.8305 5.08101 22.917 6.54864 23.5226C8.57002 24.3575 10.8244 24.1578 11.8369 21.9902V21.9896ZM15.6776 9.56843C15.2122 8.48735 14.7619 7.41172 15.4845 6.25079C16.1502 5.18181 17.4254 5.14369 18.3683 5.87752C20.3425 7.41232 20.3401 11.2279 17.8478 11.0615C19.2138 10.6174 19.6247 9.17762 18.982 7.91687L17.5095 9.03243L17.9991 7.13706C16.264 6.70633 15.637 8.09896 15.6776 9.56782V9.56843ZM16.4462 4.12795C11.9253 5.0475 14.0362 13.1232 18.4821 12.3349C22.9848 11.5364 20.9192 3.21808 16.4462 4.12795ZM6.72778 8.87453L5.30796 7.76986C4.89098 8.20725 4.85527 9.03908 5.02957 9.59747C5.23716 10.2623 5.50163 10.4408 6.01606 10.8032C3.50566 10.5957 3.87121 7.3603 5.32188 5.86663C6.06629 5.10074 7.26459 4.80189 8.14698 5.54176C9.09534 6.33548 8.86536 7.67246 8.62328 8.70272C8.22687 8.0433 8.32613 7.2145 7.126 6.96344C5.79031 6.68455 6.38765 7.22841 6.72778 8.87453ZM6.51293 3.8539C1.81653 4.63068 1.8365 12.8377 6.52806 12.0754C11.2075 11.3144 11.1863 3.08136 6.51293 3.8539ZM15.0209 0.0280876C14.3467 0.136982 14.2511 0.931304 14.6838 1.21927C15.1226 1.51086 16.2319 0.895611 17.3994 2.63247C17.6862 3.05958 17.8073 3.73351 18.3949 3.66031C20.0066 3.45946 17.4472 -0.362722 15.0209 0.0280876ZM7.38443 0.0426068C6.3471 0.192034 5.49618 0.836324 4.89582 1.66997C3.43122 3.70811 4.89885 4.00515 5.31402 3.38929C5.88109 2.54838 6.18007 1.61976 7.36203 1.35962C7.85225 1.25194 8.74311 1.50844 8.69954 0.63971C8.66322 -0.0753619 7.90248 -0.0318043 7.38382 0.0432117L7.38443 0.0426068Z"
        fill="#222327" />
</svg>